<?xml version="1.0" encoding="UTF-8"?>
<!DOCTYPE svg PUBLIC "-//W3C//DTD SVG 1.1//EN" "http://www.w3.org/Graphics/SVG/1.1/DTD/svg11.dtd">
<svg xmlns="http://www.w3.org/2000/svg" version="1.1" width="739px" height="426px" style="shape-rendering:geometricPrecision; text-rendering:geometricPrecision; image-rendering:optimizeQuality; fill-rule:evenodd; clip-rule:evenodd" xmlns:xlink="http://www.w3.org/1999/xlink">
<g><path style="opacity:1" fill="#fefefe" d="M -0.5,-0.5 C 245.833,-0.5 492.167,-0.5 738.5,-0.5C 738.5,141.5 738.5,283.5 738.5,425.5C 492.167,425.5 245.833,425.5 -0.5,425.5C -0.5,283.5 -0.5,141.5 -0.5,-0.5 Z"/></g>
<g><path style="opacity:1" fill="#df2328" d="M 181.5,85.5 C 205.876,83.2298 226.043,91.2298 242,109.5C 256.794,133.3 257.128,157.3 243,181.5C 231.195,195.218 216.195,201.551 198,200.5C 194.417,200.463 190.917,200.13 187.5,199.5C 211.673,194.713 224.007,179.88 224.5,155C 222.975,131.804 210.642,118.471 187.5,115C 155.134,112.274 127.968,122.774 106,146.5C 102.479,151.542 99.4793,156.875 97,162.5C 98.1998,133.296 111.7,111.796 137.5,98C 151.351,90.8819 166.018,86.7152 181.5,85.5 Z"/></g>
<g><path style="opacity:1" fill="#f26e23" d="M 181.5,85.5 C 209.494,82.0673 235.494,87.9006 259.5,103C 278.497,117.499 286.664,136.666 284,160.5C 283.232,177.524 276.065,191.024 262.5,201C 243.689,212.382 223.355,219.382 201.5,222C 228.285,243.091 236.451,269.924 226,302.5C 218.588,315.248 208.088,324.414 194.5,330C 183.494,334.418 172.16,337.584 160.5,339.5C 172.173,334.55 182.34,327.217 191,317.5C 205.236,297.768 204.903,278.435 190,259.5C 174.333,244.5 158.667,229.5 143,214.5C 134.723,205.283 129.056,194.616 126,182.5C 123.503,167.492 127.67,154.825 138.5,144.5C 137.01,160.538 140.843,175.205 150,188.5C 160.545,198.432 173.045,202.099 187.5,199.5C 190.917,200.13 194.417,200.463 198,200.5C 216.195,201.551 231.195,195.218 243,181.5C 257.128,157.3 256.794,133.3 242,109.5C 226.043,91.2298 205.876,83.2298 181.5,85.5 Z"/></g>
<g><path style="opacity:1" fill="#fb6143" d="M 525.5,117.5 C 528.977,127.835 526.311,136.001 517.5,142C 513.877,143.718 510.211,143.884 506.5,142.5C 505.279,141.972 504.113,141.305 503,140.5C 503.093,136.174 503.093,131.841 503,127.5C 502.8,125.68 501.966,124.347 500.5,123.5C 500.586,122.504 500.252,121.671 499.5,121C 490.167,116.333 480.833,116.333 471.5,121C 464.201,127.428 462.034,135.261 465,144.5C 465.66,146.324 466.827,147.657 468.5,148.5C 471.884,152.369 475.884,155.536 480.5,158C 493.263,163.215 505.596,169.215 517.5,176C 522.102,180.094 526.102,184.594 529.5,189.5C 540.152,229.362 525.152,252.862 484.5,260C 471.12,261.024 458.454,258.524 446.5,252.5C 431.55,240.805 427.716,226.138 435,208.5C 441.701,198.395 450.868,194.895 462.5,198C 465.936,199.274 468.603,201.441 470.5,204.5C 470.977,208.866 469.144,211.866 465,213.5C 458.865,221.745 459.031,229.745 465.5,237.5C 473.266,244.115 481.933,245.282 491.5,241C 502.926,233.963 507.092,223.797 504,210.5C 502.08,205.424 498.914,201.424 494.5,198.5C 491.921,195.865 488.921,193.699 485.5,192C 474.383,187.607 463.716,182.44 453.5,176.5C 437.274,164.859 432.774,149.526 440,130.5C 450.408,111.536 466.575,102.203 488.5,102.5C 497.561,102.51 506.228,104.343 514.5,108C 518.949,110.284 522.616,113.451 525.5,117.5 Z"/></g>
<g><path style="opacity:1" fill="#fb6042" d="M 346.5,109.5 C 344.685,128.097 343.685,146.764 343.5,165.5C 344.833,165.5 346.167,165.5 347.5,165.5C 358.833,165.5 370.167,165.5 381.5,165.5C 381.827,155.319 381.494,145.319 380.5,135.5C 380.714,128.803 380.381,122.136 379.5,115.5C 379.39,113.626 380.056,112.126 381.5,111C 390.688,104.718 400.688,102.884 411.5,105.5C 406.724,146.02 405.224,186.686 407,227.5C 408.008,236.229 409.008,244.896 410,253.5C 402.158,258.115 393.658,260.115 384.5,259.5C 382.525,258.354 381.025,256.687 380,254.5C 379.761,231.167 379.928,207.833 380.5,184.5C 380.5,183.167 380.5,181.833 380.5,180.5C 368.167,180.5 355.833,180.5 343.5,180.5C 343.935,203.867 344.769,227.2 346,250.5C 338.072,257.036 328.905,260.036 318.5,259.5C 316.365,259.853 315.032,259.02 314.5,257C 317.895,242.032 319.229,226.865 318.5,211.5C 319.494,201.347 319.828,191.014 319.5,180.5C 316.167,180.5 312.833,180.5 309.5,180.5C 307.335,180.884 305.668,180.217 304.5,178.5C 305.809,174.028 308.142,170.195 311.5,167C 313.677,165.798 316.011,165.298 318.5,165.5C 319.051,150.74 318.218,136.073 316,121.5C 314.753,118.671 313.253,116.005 311.5,113.5C 313.607,110.939 316.274,109.106 319.5,108C 327.651,105.363 335.984,104.363 344.5,105C 346.037,106.11 346.703,107.61 346.5,109.5 Z"/></g>
<g><path style="opacity:1" fill="#8e6665" d="M 411.5,105.5 C 412.283,107.076 413.45,108.409 415,109.5C 413.539,125.451 412.206,141.451 411,157.5C 410.333,183.167 410.333,208.833 411,234.5C 412.253,242.197 413.253,249.863 414,257.5C 406.159,262.28 397.659,264.113 388.5,263C 386.676,262.34 385.343,261.173 384.5,259.5C 393.658,260.115 402.158,258.115 410,253.5C 409.008,244.896 408.008,236.229 407,227.5C 405.224,186.686 406.724,146.02 411.5,105.5 Z"/></g>
<g><path style="opacity:1" fill="#8d6462" d="M 346.5,109.5 C 349.95,109.573 351.283,111.406 350.5,115C 348.553,131.435 347.553,147.935 347.5,164.5C 347.5,164.833 347.5,165.167 347.5,165.5C 346.167,165.5 344.833,165.5 343.5,165.5C 343.685,146.764 344.685,128.097 346.5,109.5 Z"/></g>
<g><path style="opacity:1" fill="#8d6564" d="M 500.5,123.5 C 491.978,120.515 483.645,121.015 475.5,125C 468.386,131.398 466.053,139.232 468.5,148.5C 466.827,147.657 465.66,146.324 465,144.5C 462.034,135.261 464.201,127.428 471.5,121C 480.833,116.333 490.167,116.333 499.5,121C 500.252,121.671 500.586,122.504 500.5,123.5 Z"/></g>
<g><path style="opacity:1" fill="#8f6665" d="M 525.5,117.5 C 527.504,118.673 529.004,120.34 530,122.5C 532.258,131.394 530.092,138.894 523.5,145C 518.137,148.246 512.803,148.246 507.5,145C 506.748,144.329 506.414,143.496 506.5,142.5C 510.211,143.884 513.877,143.718 517.5,142C 526.311,136.001 528.977,127.835 525.5,117.5 Z"/></g>
<g><path style="opacity:1" fill="#fbb924" d="M 138.5,144.5 C 127.67,154.825 123.503,167.492 126,182.5C 129.056,194.616 134.723,205.283 143,214.5C 158.667,229.5 174.333,244.5 190,259.5C 204.903,278.435 205.236,297.768 191,317.5C 182.34,327.217 172.173,334.55 160.5,339.5C 159.577,340.303 158.577,340.47 157.5,340C 173.335,324.82 176.502,307.32 167,287.5C 164,283.167 161,278.833 158,274.5C 146.298,262.467 134.965,250.133 124,237.5C 111.349,220.567 106.349,201.567 109,180.5C 113.003,163.328 122.836,150.661 138.5,142.5C 139.773,143.257 139.773,143.923 138.5,144.5 Z"/></g>
<g><path style="opacity:1" fill="#fdb6a8" d="M 380.5,135.5 C 381.494,145.319 381.827,155.319 381.5,165.5C 370.167,165.5 358.833,165.5 347.5,165.5C 347.5,165.167 347.5,164.833 347.5,164.5C 358.5,164.5 369.5,164.5 380.5,164.5C 380.5,154.833 380.5,145.167 380.5,135.5 Z"/></g>
<g><path style="opacity:1" fill="#ac7a75" d="M 309.5,180.5 C 312.833,180.5 316.167,180.5 319.5,180.5C 319.828,191.014 319.494,201.347 318.5,211.5C 318.5,202.5 318.5,193.5 318.5,184.5C 315.482,184.665 312.482,184.498 309.5,184C 308.316,182.855 308.316,181.688 309.5,180.5 Z"/></g>
<g><path style="opacity:1" fill="#8d6665" d="M 380.5,184.5 C 369.5,184.5 358.5,184.5 347.5,184.5C 347.263,207.898 348.096,231.231 350,254.5C 341.181,261.84 331.014,264.673 319.5,263C 318.663,261.989 318.33,260.822 318.5,259.5C 328.905,260.036 338.072,257.036 346,250.5C 344.769,227.2 343.935,203.867 343.5,180.5C 355.833,180.5 368.167,180.5 380.5,180.5C 380.5,181.833 380.5,183.167 380.5,184.5 Z"/></g>
<g><path style="opacity:1" fill="#976966" d="M 453.5,176.5 C 463.716,182.44 474.383,187.607 485.5,192C 488.921,193.699 491.921,195.865 494.5,198.5C 482.886,193.028 471.219,187.528 459.5,182C 457.004,180.669 455.004,178.836 453.5,176.5 Z"/></g>
<g><path style="opacity:1" fill="#8e6867" d="M 529.5,189.5 C 533.556,193.611 536.056,198.611 537,204.5C 540.354,233.643 528.188,252.81 500.5,262C 486.278,265.793 472.278,265.127 458.5,260C 453.93,258.226 449.93,255.726 446.5,252.5C 458.454,258.524 471.12,261.024 484.5,260C 525.152,252.862 540.152,229.362 529.5,189.5 Z"/></g>
<g><path style="opacity:1" fill="#8d6462" d="M 470.5,204.5 C 476.135,209.385 475.635,213.719 469,217.5C 464.494,223.532 463.327,230.199 465.5,237.5C 459.031,229.745 458.865,221.745 465,213.5C 469.144,211.866 470.977,208.866 470.5,204.5 Z"/></g>
<g><path style="opacity:1" fill="#201717" d="M 455.5,291.5 C 459.106,291.211 462.606,291.544 466,292.5C 466.818,295.227 466.652,297.894 465.5,300.5C 464.052,293.528 460.218,291.861 454,295.5C 453.104,298.025 453.604,300.192 455.5,302C 459.873,303.713 463.707,306.213 467,309.5C 468.45,314.768 466.617,318.268 461.5,320C 457.577,320.793 453.744,320.626 450,319.5C 449.291,309.936 450.458,309.436 453.5,318C 456.167,318.667 458.833,318.667 461.5,318C 464.167,315.333 464.167,312.667 461.5,310C 456.966,307.996 453.133,305.163 450,301.5C 449.477,296.88 451.31,293.547 455.5,291.5 Z"/></g>
<g><path style="opacity:1" fill="#1c1212" d="M 535.5,287.5 C 539.463,287.089 543.13,287.922 546.5,290C 546.002,291.158 545.169,291.991 544,292.5C 535.216,288.129 531.05,290.795 531.5,300.5C 536.5,300.5 541.5,300.5 546.5,300.5C 546.259,289.729 551.259,285.729 561.5,288.5C 561.081,289.672 560.415,290.672 559.5,291.5C 555.412,288.316 552.245,288.982 550,293.5C 549.503,295.81 549.337,298.143 549.5,300.5C 557.5,301.167 557.5,301.833 549.5,302.5C 549.5,307.833 549.5,313.167 549.5,318.5C 556.068,319.245 555.902,319.912 549,320.5C 547.167,320.167 545.333,319.833 543.5,319.5C 544.242,318.713 545.075,318.047 546,317.5C 546.499,312.511 546.666,307.511 546.5,302.5C 541.5,302.5 536.5,302.5 531.5,302.5C 531.5,307.833 531.5,313.167 531.5,318.5C 538.068,319.245 537.902,319.912 531,320.5C 529.167,320.167 527.333,319.833 525.5,319.5C 526.242,318.713 527.075,318.047 528,317.5C 528.667,312.833 528.667,308.167 528,303.5C 524.534,301.819 524.7,300.819 528.5,300.5C 528.248,297.68 528.748,295.014 530,292.5C 531.812,290.7 533.645,289.033 535.5,287.5 Z"/></g>
<g><path style="opacity:1" fill="#1e1515" d="M 300.5,295.5 C 299.521,298.625 299.187,301.958 299.5,305.5C 304.032,305.818 308.366,305.485 312.5,304.5C 313.482,301.038 313.815,297.371 313.5,293.5C 312.325,293.719 311.325,293.386 310.5,292.5C 313.833,291.167 317.167,291.167 320.5,292.5C 319.758,293.287 318.925,293.953 318,294.5C 317.5,302.493 317.334,310.493 317.5,318.5C 318.675,318.281 319.675,318.614 320.5,319.5C 317.167,320.833 313.833,320.833 310.5,319.5C 311.77,318.712 312.77,317.712 313.5,316.5C 314.479,313.375 314.813,310.042 314.5,306.5C 310.298,306.183 306.298,306.517 302.5,307.5C 301.5,307.5 300.5,307.5 299.5,307.5C 299.335,310.85 299.502,314.183 300,317.5C 301.205,318.071 302.372,318.738 303.5,319.5C 299.878,320.659 296.211,320.825 292.5,320C 294,319.167 295.167,318 296,316.5C 296.667,309.167 296.667,301.833 296,294.5C 295.075,293.953 294.242,293.287 293.5,292.5C 296.833,291.167 300.167,291.167 303.5,292.5C 302.007,293.141 301.007,294.141 300.5,295.5 Z"/></g>
<g><path style="opacity:1" fill="#1f1516" d="M 481.5,296.5 C 482.434,297.568 482.768,298.901 482.5,300.5C 484.604,300.201 486.604,300.534 488.5,301.5C 486.257,302.474 483.924,302.808 481.5,302.5C 481.334,307.179 481.501,311.845 482,316.5C 484.147,317.113 486.314,317.779 488.5,318.5C 485.297,321.122 482.13,321.122 479,318.5C 479.058,312.616 478.225,306.95 476.5,301.5C 478.006,299.599 479.673,297.932 481.5,296.5 Z"/></g>
<g><path style="opacity:1" fill="#190e0e" d="M 363.5,330.5 C 360.615,330.806 357.948,330.473 355.5,329.5C 356.117,329.389 356.617,329.056 357,328.5C 357.667,320.167 357.667,311.833 357,303.5C 356.075,302.953 355.242,302.287 354.5,301.5C 357.346,299.393 360.013,299.393 362.5,301.5C 367.242,298.778 371.076,299.778 374,304.5C 376.261,315.674 371.761,321.008 360.5,320.5C 360.336,323.187 360.503,325.854 361,328.5C 361.995,329.066 362.828,329.733 363.5,330.5 Z"/></g>
<g><path style="opacity:1" fill="#201717" d="M 394.5,320.5 C 392.5,320.5 390.5,320.5 388.5,320.5C 388.194,323.385 388.527,326.052 389.5,328.5C 390.675,328.281 391.675,328.614 392.5,329.5C 389.554,330.655 386.554,330.821 383.5,330C 384,329.5 384.5,329 385,328.5C 385.167,324.167 385.333,319.833 385.5,315.5C 385.441,310.652 384.774,305.985 383.5,301.5C 385.304,300.232 387.304,299.565 389.5,299.5C 389.351,300.552 389.517,301.552 390,302.5C 395.437,298.107 399.77,299.107 403,305.5C 404.287,312.933 401.454,317.933 394.5,320.5 Z"/></g>
<g><path style="opacity:1" fill="#1e1414" d="M 408.5,301.5 C 411.304,300.362 414.304,300.195 417.5,301C 416.422,301.674 415.755,302.674 415.5,304C 416.436,307.911 417.602,311.745 419,315.5C 421.52,311.108 423.353,306.441 424.5,301.5C 423.127,301.657 421.793,301.49 420.5,301C 423.167,300.333 425.833,300.333 428.5,301C 424.221,309.727 420.055,318.56 416,327.5C 413.9,331.669 411.4,332.169 408.5,329C 413.161,327.506 415.828,324.339 416.5,319.5C 415.306,314.416 413.806,309.416 412,304.5C 410.961,303.29 409.794,302.29 408.5,301.5 Z"/></g>
<g><path style="opacity:1" fill="#1b1010" d="M 499.5,299.5 C 500.5,299.5 501.5,299.5 502.5,299.5C 501.279,305.378 501.279,311.211 502.5,317C 505.347,317.944 507.847,317.444 510,315.5C 510.499,311.179 510.666,306.846 510.5,302.5C 509.325,302.719 508.325,302.386 507.5,301.5C 509.707,300.365 512.04,299.699 514.5,299.5C 513.637,305.455 513.303,311.455 513.5,317.5C 515.446,317.193 517.113,317.193 518.5,317.5C 515.69,321.426 512.857,321.426 510,317.5C 506.531,320.916 502.864,321.25 499,318.5C 498.501,313.177 498.334,307.844 498.5,302.5C 497.448,302.649 496.448,302.483 495.5,302C 496.858,301.066 498.192,300.232 499.5,299.5 Z"/></g>
<g><path style="opacity:1" fill="#f3f2f2" d="M 364.5,302.5 C 370.526,304.208 372.693,308.208 371,314.5C 370.535,315.931 369.701,317.097 368.5,318C 365.854,318.497 363.187,318.664 360.5,318.5C 360.173,313.786 360.507,309.12 361.5,304.5C 362.739,304.058 363.739,303.391 364.5,302.5 Z"/></g>
<g><path style="opacity:1" fill="#f0efef" d="M 392.5,302.5 C 395.522,302.428 397.688,303.762 399,306.5C 401.366,315.793 398.033,319.46 389,317.5C 388.333,313.5 388.333,309.5 389,305.5C 390.145,304.364 391.312,303.364 392.5,302.5 Z"/></g>
<g><path style="opacity:1" fill="#6b6161" d="M 300.5,295.5 C 300.5,298.5 300.5,301.5 300.5,304.5C 304.5,304.5 308.5,304.5 312.5,304.5C 308.366,305.485 304.032,305.818 299.5,305.5C 299.187,301.958 299.521,298.625 300.5,295.5 Z"/></g>
<g><path style="opacity:1" fill="#847b7b" d="M 302.5,307.5 C 306.298,306.517 310.298,306.183 314.5,306.5C 314.813,310.042 314.479,313.375 313.5,316.5C 313.5,313.5 313.5,310.5 313.5,307.5C 309.833,307.5 306.167,307.5 302.5,307.5 Z"/></g>
<g><path style="opacity:1" fill="#1f1516" d="M 335.5,299.5 C 338.652,298.959 341.152,299.959 343,302.5C 343.291,307.189 343.291,311.856 343,316.5C 348.804,317.189 348.971,318.522 343.5,320.5C 341.575,320.41 340.408,319.41 340,317.5C 334.881,322.216 331.381,321.383 329.5,315C 329.833,314.167 330.167,313.333 330.5,312.5C 333.652,310.879 336.985,309.879 340.5,309.5C 340.38,302.359 337.213,300.692 331,304.5C 330.333,303.833 330.333,303.167 331,302.5C 332.652,301.601 334.152,300.601 335.5,299.5 Z"/></g>
<g><path style="opacity:1" fill="#edebeb" d="M 336.5,311.5 C 337.5,311.5 338.5,311.5 339.5,311.5C 340.493,316.675 338.493,318.509 333.5,317C 332.978,316.439 332.645,315.772 332.5,315C 333.347,313.229 334.68,312.063 336.5,311.5 Z"/></g>
<g><path style="opacity:1" fill="#999393" d="M 394.5,320.5 C 393.081,321.451 391.415,321.784 389.5,321.5C 389.5,323.833 389.5,326.167 389.5,328.5C 388.527,326.052 388.194,323.385 388.5,320.5C 390.5,320.5 392.5,320.5 394.5,320.5 Z"/></g>
<g><path style="opacity:1" fill="#a29c9c" d="M 355.5,329.5 C 357.948,330.473 360.615,330.806 363.5,330.5C 360.645,331.803 357.645,331.803 354.5,330.5C 354.624,329.893 354.957,329.56 355.5,329.5 Z"/></g>
</svg>
