<?xml version="1.0" encoding="UTF-8"?>
<!DOCTYPE svg PUBLIC "-//W3C//DTD SVG 1.1//EN" "http://www.w3.org/Graphics/SVG/1.1/DTD/svg11.dtd">
<svg xmlns="http://www.w3.org/2000/svg" version="1.1" width="600px" height="600px" style="shape-rendering:geometricPrecision; text-rendering:geometricPrecision; image-rendering:optimizeQuality; fill-rule:evenodd; clip-rule:evenodd" xmlns:xlink="http://www.w3.org/1999/xlink">
<g><path style="opacity:1" fill="#fefefe" d="M -0.5,-0.5 C 199.5,-0.5 399.5,-0.5 599.5,-0.5C 599.5,199.5 599.5,399.5 599.5,599.5C 399.5,599.5 199.5,599.5 -0.5,599.5C -0.5,399.5 -0.5,199.5 -0.5,-0.5 Z"/></g>
<g><path style="opacity:1" fill="#f9cab7" d="M 338.5,51.5 C 330.833,51.5 323.167,51.5 315.5,51.5C 312.167,51.5 308.833,51.5 305.5,51.5C 301.102,51.2941 296.768,51.6274 292.5,52.5C 299.803,51.1691 307.47,50.5024 315.5,50.5C 323.341,50.5003 331.007,50.8336 338.5,51.5 Z"/></g>
<g><path style="opacity:1" fill="#ed7a6a" d="M 305.5,51.5 C 301.343,52.4489 297.01,53.1156 292.5,53.5C 292.5,53.1667 292.5,52.8333 292.5,52.5C 296.768,51.6274 301.102,51.2941 305.5,51.5 Z"/></g>
<g><path style="opacity:1" fill="#fbcbb0" d="M 338.5,51.5 C 352.661,51.2536 366.328,53.2536 379.5,57.5C 372.508,56.5715 365.508,55.4048 358.5,54C 352.5,53.6667 346.5,53.3333 340.5,53C 339.584,52.7216 338.918,52.2216 338.5,51.5 Z"/></g>
<g><path style="opacity:1" fill="#df2328" d="M 305.5,51.5 C 308.833,51.5 312.167,51.5 315.5,51.5C 329.256,53.6625 342.923,56.6625 356.5,60.5C 365.679,64.245 374.679,68.5783 383.5,73.5C 408.281,89.3808 423.948,111.714 430.5,140.5C 431.368,150.508 432.368,160.508 433.5,170.5C 432.754,174.132 432.421,177.798 432.5,181.5C 431.562,221.751 413.228,250.751 377.5,268.5C 371.205,270.487 364.872,272.487 358.5,274.5C 344.217,276.343 329.884,276.843 315.5,276C 312.949,275.998 310.949,275.164 309.5,273.5C 325.346,269.965 339.679,263.298 352.5,253.5C 353.833,253.5 354.5,252.833 354.5,251.5C 358.23,249.438 360.896,246.438 362.5,242.5C 365.313,241.554 366.646,239.554 366.5,236.5C 368.006,232.911 369.673,229.578 371.5,226.5C 372.371,223.997 373.037,221.33 373.5,218.5C 374.255,215.947 374.922,213.28 375.5,210.5C 376.449,206.343 377.116,202.01 377.5,197.5C 377.5,192.167 377.5,186.833 377.5,181.5C 377.806,178.615 377.473,175.948 376.5,173.5C 376.664,170.813 376.497,168.146 376,165.5C 375.617,164.944 375.117,164.611 374.5,164.5C 374.546,159.124 372.88,154.457 369.5,150.5C 362.046,136.717 351.046,126.717 336.5,120.5C 330.423,117.364 324.09,115.031 317.5,113.5C 316.817,111.824 315.483,111.157 313.5,111.5C 311.5,111.5 309.5,111.5 307.5,111.5C 306.082,109.692 304.082,109.025 301.5,109.5C 289.833,109.5 278.167,109.5 266.5,109.5C 262.988,108.945 259.988,109.612 257.5,111.5C 242.643,114.127 228.31,118.127 214.5,123.5C 210.873,124.321 207.54,125.654 204.5,127.5C 199.361,130.07 194.027,132.736 188.5,135.5C 183.959,139.923 178.959,143.59 173.5,146.5C 172.167,146.5 171.5,147.167 171.5,148.5C 164.54,154.789 157.54,161.122 150.5,167.5C 146.837,172.824 143.17,178.157 139.5,183.5C 136.592,188.642 134.259,193.976 132.5,199.5C 130.631,197.365 129.964,194.698 130.5,191.5C 130.655,180.141 132.655,169.141 136.5,158.5C 138.472,154.648 140.472,150.648 142.5,146.5C 143.945,141.609 145.945,136.942 148.5,132.5C 149.141,131.007 150.141,130.007 151.5,129.5C 153.257,128.708 154.591,127.375 155.5,125.5C 156.429,124.311 156.762,122.978 156.5,121.5C 164.147,111.187 173.147,102.187 183.5,94.5C 185.677,93.7206 187.344,92.3873 188.5,90.5C 206.854,76.9504 227.187,67.2837 249.5,61.5C 251.527,61.6621 253.527,61.4955 255.5,61C 261.319,59.0606 266.986,57.2273 272.5,55.5C 279.072,54.0857 285.739,53.4191 292.5,53.5C 297.01,53.1156 301.343,52.4489 305.5,51.5 Z"/></g>
<g><path style="opacity:1" fill="#f26e23" d="M 315.5,51.5 C 323.167,51.5 330.833,51.5 338.5,51.5C 338.918,52.2216 339.584,52.7216 340.5,53C 346.5,53.3333 352.5,53.6667 358.5,54C 365.508,55.4048 372.508,56.5715 379.5,57.5C 384.737,59.0983 390.07,60.765 395.5,62.5C 397.102,64.0739 399.102,64.7406 401.5,64.5C 403.558,65.9331 405.892,66.5997 408.5,66.5C 409.802,68.8218 411.802,70.1551 414.5,70.5C 435.993,79.3852 454.66,92.3852 470.5,109.5C 474.554,116.201 478.554,122.868 482.5,129.5C 483.397,132.213 484.73,134.546 486.5,136.5C 489.412,143.473 491.412,150.806 492.5,158.5C 491.99,161.388 492.656,163.721 494.5,165.5C 494.5,166.167 494.5,166.833 494.5,167.5C 494.5,175.5 494.5,183.5 494.5,191.5C 494.5,194.833 494.5,198.167 494.5,201.5C 492.656,203.279 491.99,205.612 492.5,208.5C 492.5,209.833 492.5,211.167 492.5,212.5C 490.824,213.183 490.157,214.517 490.5,216.5C 490.5,217.833 490.5,219.167 490.5,220.5C 488.824,221.183 488.157,222.517 488.5,224.5C 488.69,228.032 488.023,231.365 486.5,234.5C 483.867,236.777 482.534,239.777 482.5,243.5C 478.374,250.374 473.707,257.04 468.5,263.5C 445.91,284.302 419.577,298.636 389.5,306.5C 387.517,306.157 386.183,306.824 385.5,308.5C 373.936,311.213 362.269,313.546 350.5,315.5C 346.486,315.334 342.486,315.501 338.5,316C 337.584,316.278 336.918,316.778 336.5,317.5C 335.022,317.238 333.689,317.571 332.5,318.5C 332.624,319.107 332.957,319.44 333.5,319.5C 339.139,323.797 344.805,328.131 350.5,332.5C 352.987,334.809 354.987,337.476 356.5,340.5C 357.689,341.429 359.022,341.762 360.5,341.5C 365.45,350.713 370.95,359.713 377,368.5C 378.538,373.28 380.371,377.946 382.5,382.5C 383.956,386.757 384.956,391.09 385.5,395.5C 385.025,398.082 385.692,400.082 387.5,401.5C 389.223,417.098 389.889,432.765 389.5,448.5C 387.824,449.183 387.157,450.517 387.5,452.5C 387.5,454.5 387.5,456.5 387.5,458.5C 385.824,459.183 385.157,460.517 385.5,462.5C 385.5,463.5 385.5,464.5 385.5,465.5C 383.153,467.527 381.819,470.194 381.5,473.5C 370.288,493.714 354.621,509.714 334.5,521.5C 327.946,524.28 321.612,527.28 315.5,530.5C 313.302,530.875 311.302,531.542 309.5,532.5C 306.895,532.621 304.895,533.621 303.5,535.5C 296.79,536.962 290.457,538.962 284.5,541.5C 274.364,544.394 264.031,546.394 253.5,547.5C 265.555,541.971 277.221,535.638 288.5,528.5C 288.281,527.325 288.614,526.325 289.5,525.5C 293.827,522.508 298.161,519.508 302.5,516.5C 303.429,515.311 303.762,513.978 303.5,512.5C 304.978,512.762 306.311,512.429 307.5,511.5C 309.743,507.252 312.743,503.586 316.5,500.5C 318.667,495.75 321,491.083 323.5,486.5C 324.5,485.5 325.5,484.5 326.5,483.5C 327.841,478.823 329.174,474.156 330.5,469.5C 331.161,468.282 331.828,466.949 332.5,465.5C 334.45,454.875 334.783,444.209 333.5,433.5C 333.444,431.36 332.777,429.694 331.5,428.5C 328.785,421.4 325.785,414.4 322.5,407.5C 317.055,401.386 312.388,394.72 308.5,387.5C 294.842,375.842 281.842,363.509 269.5,350.5C 264.182,346.608 258.849,342.608 253.5,338.5C 238.77,324.439 224.77,309.773 211.5,294.5C 199.693,277.494 191.027,259.161 185.5,239.5C 185.334,231.826 185.5,224.159 186,216.5C 187.096,210.01 188.596,203.677 190.5,197.5C 191.797,193.427 193.464,189.427 195.5,185.5C 199.324,181.186 202.657,176.519 205.5,171.5C 207.116,170.885 208.449,169.885 209.5,168.5C 210.107,168.624 210.44,168.957 210.5,169.5C 210.5,170.833 210.5,172.167 210.5,173.5C 208.983,177.56 208.316,181.893 208.5,186.5C 208.667,189.5 208.833,192.5 209,195.5C 209.278,196.416 209.778,197.082 210.5,197.5C 210.987,201.867 211.653,206.201 212.5,210.5C 212.157,212.483 212.824,213.817 214.5,214.5C 216.702,221.912 219.202,229.245 222,236.5C 225.041,242.319 228.541,247.986 232.5,253.5C 243.217,264.188 255.884,271.188 270.5,274.5C 272.948,275.473 275.615,275.806 278.5,275.5C 281.087,276.816 284.087,277.483 287.5,277.5C 291.797,277.722 295.797,277.055 299.5,275.5C 302.082,275.975 304.082,275.308 305.5,273.5C 306.833,273.5 308.167,273.5 309.5,273.5C 310.949,275.164 312.949,275.998 315.5,276C 329.884,276.843 344.217,276.343 358.5,274.5C 364.872,272.487 371.205,270.487 377.5,268.5C 413.228,250.751 431.562,221.751 432.5,181.5C 433.827,177.049 434.494,172.216 434.5,167C 434.167,162.167 433.833,157.333 433.5,152.5C 433.118,148.084 432.118,144.084 430.5,140.5C 423.948,111.714 408.281,89.3808 383.5,73.5C 374.679,68.5783 365.679,64.245 356.5,60.5C 342.923,56.6625 329.256,53.6625 315.5,51.5 Z"/></g>
<g><path style="opacity:1" fill="#ed756d" d="M 272.5,55.5 C 266.986,57.2273 261.319,59.0606 255.5,61C 253.527,61.4955 251.527,61.6621 249.5,61.5C 256.693,58.1172 264.36,56.1172 272.5,55.5 Z"/></g>
<g><path style="opacity:1" fill="#fac09f" d="M 395.5,62.5 C 398.082,62.0254 400.082,62.6921 401.5,64.5C 399.102,64.7406 397.102,64.0739 395.5,62.5 Z"/></g>
<g><path style="opacity:1" fill="#f8a87a" d="M 408.5,66.5 C 411.172,66.9477 413.172,68.281 414.5,70.5C 411.802,70.1551 409.802,68.8218 408.5,66.5 Z"/></g>
<g><path style="opacity:1" fill="#f08884" d="M 188.5,90.5 C 187.344,92.3873 185.677,93.7206 183.5,94.5C 184.444,92.3121 186.111,90.9788 188.5,90.5 Z"/></g>
<g><path style="opacity:1" fill="#ec6859" d="M 266.5,109.5 C 264.012,111.388 261.012,112.055 257.5,111.5C 259.988,109.612 262.988,108.945 266.5,109.5 Z"/></g>
<g><path style="opacity:1" fill="#f0897b" d="M 301.5,109.5 C 304.082,109.025 306.082,109.692 307.5,111.5C 304.918,111.975 302.918,111.308 301.5,109.5 Z"/></g>
<g><path style="opacity:1" fill="#ef7f6f" d="M 313.5,111.5 C 315.483,111.157 316.817,111.824 317.5,113.5C 315.517,113.843 314.183,113.176 313.5,111.5 Z"/></g>
<g><path style="opacity:1" fill="#e9615b" d="M 156.5,121.5 C 156.762,122.978 156.429,124.311 155.5,125.5C 154.591,127.375 153.257,128.708 151.5,129.5C 152.433,126.356 154.1,123.689 156.5,121.5 Z"/></g>
<g><path style="opacity:1" fill="#f8bfb8" d="M 214.5,123.5 C 211.939,126.363 208.606,127.696 204.5,127.5C 207.54,125.654 210.873,124.321 214.5,123.5 Z"/></g>
<g><path style="opacity:1" fill="#f9b791" d="M 482.5,129.5 C 484.942,131.121 486.275,133.454 486.5,136.5C 484.73,134.546 483.397,132.213 482.5,129.5 Z"/></g>
<g><path style="opacity:1" fill="#f1948c" d="M 173.5,146.5 C 173.5,147.833 172.833,148.5 171.5,148.5C 171.5,147.167 172.167,146.5 173.5,146.5 Z"/></g>
<g><path style="opacity:1" fill="#f6afab" d="M 142.5,146.5 C 140.472,150.648 138.472,154.648 136.5,158.5C 137.301,154.433 138.301,150.433 139.5,146.5C 140.5,146.5 141.5,146.5 142.5,146.5 Z"/></g>
<g><path style="opacity:1" fill="#ec7065" d="M 369.5,150.5 C 372.88,154.457 374.546,159.124 374.5,164.5C 372.538,160.016 370.872,155.349 369.5,150.5 Z"/></g>
<g><path style="opacity:1" fill="#f8b28b" d="M 492.5,158.5 C 494.344,160.279 495.01,162.612 494.5,165.5C 492.656,163.721 491.99,161.388 492.5,158.5 Z"/></g>
<g><path style="opacity:1" fill="#e84824" d="M 430.5,140.5 C 432.118,144.084 433.118,148.084 433.5,152.5C 433.833,157.333 434.167,162.167 434.5,167C 434.494,172.216 433.827,177.049 432.5,181.5C 432.421,177.798 432.754,174.132 433.5,170.5C 432.368,160.508 431.368,150.508 430.5,140.5 Z"/></g>
<g><path style="opacity:1" fill="#fbb924" d="M 210.5,169.5 C 210.44,168.957 210.107,168.624 209.5,168.5C 208.449,169.885 207.116,170.885 205.5,171.5C 202.657,176.519 199.324,181.186 195.5,185.5C 193.464,189.427 191.797,193.427 190.5,197.5C 188.905,199.111 187.739,201.111 187,203.5C 184.48,215.564 183.98,227.564 185.5,239.5C 191.027,259.161 199.693,277.494 211.5,294.5C 224.77,309.773 238.77,324.439 253.5,338.5C 258.849,342.608 264.182,346.608 269.5,350.5C 281.842,363.509 294.842,375.842 308.5,387.5C 312.388,394.72 317.055,401.386 322.5,407.5C 325.785,414.4 328.785,421.4 331.5,428.5C 333.006,442.297 332.673,455.964 330.5,469.5C 329.174,474.156 327.841,478.823 326.5,483.5C 325.5,484.5 324.5,485.5 323.5,486.5C 321,491.083 318.667,495.75 316.5,500.5C 312.743,503.586 309.743,507.252 307.5,511.5C 306.311,512.429 304.978,512.762 303.5,512.5C 303.762,513.978 303.429,515.311 302.5,516.5C 298.161,519.508 293.827,522.508 289.5,525.5C 288.614,526.325 288.281,527.325 288.5,528.5C 277.221,535.638 265.555,541.971 253.5,547.5C 252.167,547.5 250.833,547.5 249.5,547.5C 254.446,541.707 259.279,535.707 264,529.5C 274.481,512.909 278.315,494.909 275.5,475.5C 269.9,450.304 257.567,428.97 238.5,411.5C 237.833,410.167 237.167,408.833 236.5,407.5C 216.699,389.205 198.532,369.538 182,348.5C 171.064,332.296 162.564,314.963 156.5,296.5C 156.989,290.751 155.989,285.418 153.5,280.5C 152.24,266.78 152.24,253.113 153.5,239.5C 154.374,232.337 156.041,225.337 158.5,218.5C 167.884,199.787 180.884,184.121 197.5,171.5C 201.619,168.107 206.286,165.774 211.5,164.5C 212.894,166.582 212.561,168.249 210.5,169.5 Z"/></g>
<g><path style="opacity:1" fill="#ed7b75" d="M 374.5,164.5 C 375.117,164.611 375.617,164.944 376,165.5C 376.497,168.146 376.664,170.813 376.5,173.5C 376.167,173.5 375.833,173.5 375.5,173.5C 375.632,170.43 375.299,167.43 374.5,164.5 Z"/></g>
<g><path style="opacity:1" fill="#fac6a9" d="M 494.5,167.5 C 495.117,167.611 495.617,167.944 496,168.5C 496.167,172.333 496.333,176.167 496.5,180C 496.49,184.229 495.823,188.062 494.5,191.5C 494.5,183.5 494.5,175.5 494.5,167.5 Z"/></g>
<g><path style="opacity:1" fill="#f6b0a2" d="M 375.5,173.5 C 375.833,173.5 376.167,173.5 376.5,173.5C 377.473,175.948 377.806,178.615 377.5,181.5C 375.631,179.365 374.964,176.698 375.5,173.5 Z"/></g>
<g><path style="opacity:1" fill="#f8af85" d="M 210.5,173.5 C 210.5,181.5 210.5,189.5 210.5,197.5C 209.778,197.082 209.278,196.416 209,195.5C 208.833,192.5 208.667,189.5 208.5,186.5C 208.316,181.893 208.983,177.56 210.5,173.5 Z"/></g>
<g><path style="opacity:1" fill="#f2998e" d="M 130.5,191.5 C 129.964,194.698 130.631,197.365 132.5,199.5C 129.617,204.899 128.283,204.233 128.5,197.5C 128.539,195.048 129.206,193.048 130.5,191.5 Z"/></g>
<g><path style="opacity:1" fill="#f8b790" d="M 494.5,201.5 C 495.01,204.388 494.344,206.721 492.5,208.5C 491.99,205.612 492.656,203.279 494.5,201.5 Z"/></g>
<g><path style="opacity:1" fill="#ef8881" d="M 377.5,197.5 C 377.116,202.01 376.449,206.343 375.5,210.5C 374.903,205.706 375.57,201.373 377.5,197.5 Z"/></g>
<g><path style="opacity:1" fill="#f8b289" d="M 212.5,210.5 C 214.176,211.183 214.843,212.517 214.5,214.5C 212.824,213.817 212.157,212.483 212.5,210.5 Z"/></g>
<g><path style="opacity:1" fill="#f6a373" d="M 492.5,212.5 C 492.843,214.483 492.176,215.817 490.5,216.5C 490.157,214.517 490.824,213.183 492.5,212.5 Z"/></g>
<g><path style="opacity:1" fill="#ef8e8a" d="M 375.5,210.5 C 374.922,213.28 374.255,215.947 373.5,218.5C 372.964,215.302 373.631,212.635 375.5,210.5 Z"/></g>
<g><path style="opacity:1" fill="#f69322" d="M 190.5,197.5 C 188.596,203.677 187.096,210.01 186,216.5C 185.5,224.159 185.334,231.826 185.5,239.5C 183.98,227.564 184.48,215.564 187,203.5C 187.739,201.111 188.905,199.111 190.5,197.5 Z"/></g>
<g><path style="opacity:1" fill="#f7a575" d="M 490.5,220.5 C 490.843,222.483 490.176,223.817 488.5,224.5C 488.157,222.517 488.824,221.183 490.5,220.5 Z"/></g>
<g><path style="opacity:1" fill="#f3a49e" d="M 373.5,218.5 C 373.037,221.33 372.371,223.997 371.5,226.5C 370.964,223.302 371.631,220.635 373.5,218.5 Z"/></g>
<g><path style="opacity:1" fill="#f18d86" d="M 366.5,236.5 C 366.646,239.554 365.313,241.554 362.5,242.5C 363.238,240.06 364.571,238.06 366.5,236.5 Z"/></g>
<g><path style="opacity:1" fill="#fcd0b8" d="M 486.5,234.5 C 486.146,238.022 484.813,241.022 482.5,243.5C 482.534,239.777 483.867,236.777 486.5,234.5 Z"/></g>
<g><path style="opacity:1" fill="#fcd07d" d="M 153.5,239.5 C 152.24,253.113 152.24,266.78 153.5,280.5C 152.17,274.034 151.503,267.201 151.5,260C 151.503,252.799 152.17,245.966 153.5,239.5 Z"/></g>
<g><path style="opacity:1" fill="#f0948c" d="M 354.5,251.5 C 354.5,252.833 353.833,253.5 352.5,253.5C 352.5,252.167 353.167,251.5 354.5,251.5 Z"/></g>
<g><path style="opacity:1" fill="#fbceb5" d="M 305.5,273.5 C 304.082,275.308 302.082,275.975 299.5,275.5C 292.5,275.5 285.5,275.5 278.5,275.5C 275.615,275.806 272.948,275.473 270.5,274.5C 282.217,274.791 293.884,274.458 305.5,273.5 Z"/></g>
<g><path style="opacity:1" fill="#f58d52" d="M 278.5,275.5 C 285.5,275.5 292.5,275.5 299.5,275.5C 295.797,277.055 291.797,277.722 287.5,277.5C 284.087,277.483 281.087,276.816 278.5,275.5 Z"/></g>
<g><path style="opacity:1" fill="#fcc66a" d="M 153.5,280.5 C 155.989,285.418 156.989,290.751 156.5,296.5C 154.368,291.5 153.368,286.166 153.5,280.5 Z"/></g>
<g><path style="opacity:1" fill="#f8b28a" d="M 389.5,306.5 C 388.817,308.176 387.483,308.843 385.5,308.5C 386.183,306.824 387.517,306.157 389.5,306.5 Z"/></g>
<g><path style="opacity:1" fill="#f69e6c" d="M 350.5,315.5 C 348.735,316.461 346.735,316.795 344.5,316.5C 341.833,316.833 339.167,317.167 336.5,317.5C 336.918,316.778 337.584,316.278 338.5,316C 342.486,315.501 346.486,315.334 350.5,315.5 Z"/></g>
<g><path style="opacity:1" fill="#fbd1b9" d="M 344.5,316.5 C 340.976,318.003 337.31,319.003 333.5,319.5C 332.957,319.44 332.624,319.107 332.5,318.5C 333.689,317.571 335.022,317.238 336.5,317.5C 339.167,317.167 341.833,316.833 344.5,316.5 Z"/></g>
<g><path style="opacity:1" fill="#f8a97c" d="M 385.5,395.5 C 387.308,396.918 387.975,398.918 387.5,401.5C 385.692,400.082 385.025,398.082 385.5,395.5 Z"/></g>
<g><path style="opacity:1" fill="#f8b893" d="M 389.5,448.5 C 389.843,450.483 389.176,451.817 387.5,452.5C 387.157,450.517 387.824,449.183 389.5,448.5 Z"/></g>
<g><path style="opacity:1" fill="#f9b690" d="M 387.5,458.5 C 387.843,460.483 387.176,461.817 385.5,462.5C 385.157,460.517 385.824,459.183 387.5,458.5 Z"/></g>
<g><path style="opacity:1" fill="#f69422" d="M 331.5,428.5 C 332.777,429.694 333.444,431.36 333.5,433.5C 334.783,444.209 334.45,454.875 332.5,465.5C 331.828,466.949 331.161,468.282 330.5,469.5C 332.673,455.964 333.006,442.297 331.5,428.5 Z"/></g>
<g><path style="opacity:1" fill="#fbcbaf" d="M 385.5,465.5 C 385.468,468.994 384.135,471.661 381.5,473.5C 381.819,470.194 383.153,467.527 385.5,465.5 Z"/></g>
<g><path style="opacity:1" fill="#f9b289" d="M 315.5,530.5 C 314.082,532.308 312.082,532.975 309.5,532.5C 311.302,531.542 313.302,530.875 315.5,530.5 Z"/></g>
<g><path style="opacity:1" fill="#f9b892" d="M 309.5,532.5 C 308.105,534.379 306.105,535.379 303.5,535.5C 304.895,533.621 306.895,532.621 309.5,532.5 Z"/></g>
<g><path style="opacity:1" fill="#fbbf9e" d="M 303.5,535.5 C 297.736,538.865 291.403,540.865 284.5,541.5C 290.457,538.962 296.79,536.962 303.5,535.5 Z"/></g>
<g><path style="opacity:1" fill="#f9b36a" d="M 249.5,547.5 C 250.833,547.5 252.167,547.5 253.5,547.5C 252.666,548.748 251.333,549.415 249.5,549.5C 244.234,548.801 244.234,548.134 249.5,547.5 Z"/></g>
</svg>
